<?xml version="1.0" encoding="UTF-8" standalone="no"?>
<!-- Created with Inkscape (http://www.inkscape.org/) -->

<svg
   width="1190.625mm"
   height="1190.625mm"
   viewBox="0 0 1190.6249 1190.6251"
   version="1.1"
   id="svg1"
   xml:space="preserve"
   inkscape:version="1.4.2 (ebf0e940d0, 2025-05-08)"
   sodipodi:docname="logo-dion-andsyh-black.svg"
   xmlns:inkscape="http://www.inkscape.org/namespaces/inkscape"
   xmlns:sodipodi="http://sodipodi.sourceforge.net/DTD/sodipodi-0.dtd"
   xmlns="http://www.w3.org/2000/svg"
   xmlns:svg="http://www.w3.org/2000/svg"><sodipodi:namedview
     id="namedview1"
     pagecolor="#ffffff"
     bordercolor="#000000"
     borderopacity="0.25"
     inkscape:showpageshadow="2"
     inkscape:pageopacity="0.0"
     inkscape:pagecheckerboard="0"
     inkscape:deskcolor="#d1d1d1"
     inkscape:document-units="mm"
     inkscape:zoom="0.14435576"
     inkscape:cx="1614.068"
     inkscape:cy="3273.1636"
     inkscape:window-width="1920"
     inkscape:window-height="1000"
     inkscape:window-x="0"
     inkscape:window-y="44"
     inkscape:window-maximized="1"
     inkscape:current-layer="g1" /><defs
     id="defs1" /><g
     inkscape:label="Layer 1"
     inkscape:groupmode="layer"
     id="layer1"
     transform="translate(-588.22856,521.94931)"><g
       id="g1"
       transform="translate(929.70229,142.64529)"><g
         inkscape:label="Layer 1"
         id="layer1-5"
         transform="matrix(1.1089873,0,0,1.1089873,-300.65488,-623.77575)"><circle
           style="fill:#000000;fill-opacity:1;stroke:none;stroke-width:0.268498;stroke-linecap:round;stroke-linejoin:miter;stroke-dasharray:none;stroke-opacity:1"
           id="path10"
           cx="500"
           cy="500"
           r="536.80731" /><path
           id="path8"
           style="fill:#ffffff;fill-opacity:1;stroke:#ffffff;stroke-width:1.10228;stroke-linecap:round;stroke-linejoin:miter;stroke-dasharray:none;stroke-opacity:1"
           d="m 580.18072,317.24635 c -88.78079,-0.12015 -269.72097,0.60949 -269.72097,0.60949 l 27.65609,54.36548 c 0,0 160.96589,1.2728 244.21575,0.0547 45.67579,-0.66831 96.14423,41.74583 94.42899,100.06251 -2.06763,70.29834 -52.62857,98.46141 -84.89928,98.48125 -30.5886,0.0198 -24.56809,0.0988 -38.36605,0.15719 -5.41854,0.0229 -12.23308,-11.86975 -16.40501,-19.46727 -26.90731,-49.0012 -58.20132,-100.24324 -83.69965,-145.32891 -4.94851,-8.74984 -9.95765,-8.8531 -15.15639,0 -52.23628,88.95492 -127.69698,219.98989 -127.69698,219.98989 0,0 125.81164,0.011 192.54001,-0.073 12.09598,-0.0154 17.42452,5.34496 22.85763,14.87385 54.16511,94.9979 119.12326,199.0159 119.12326,199.0159 l 70.57796,65.91165 -20.41512,-92.15965 -111.54051,-185.60025 c 0,0 61.80081,1.53237 107.32514,-48.41298 28.66183,-31.44526 41.42072,-69.75416 41.12187,-107.90842 -0.63237,-80.73823 -61.53787,-154.4492 -151.94674,-154.57155 z m -134.31706,186.89052 38.35806,67.22975 -77.12741,0.10252 z"
           sodipodi:nodetypes="sccsscsssscssccccsssscccc" /><path
           d="m 547.13429,784.05044 -75.83708,163.13327 -44.89907,-4.39547 -42.75996,-174.74357 38.66309,3.785 18.48398,84.7989 q 3.28815,16.69084 6.82765,34.32204 3.415,17.73347 7.28199,40.20438 l -9.63743,-0.94347 q 8.37823,-21.27214 15.28092,-37.99555 6.77822,-16.62112 13.46765,-32.33518 l 35.48559,-79.51545 z m -41.25006,33.16388 -2.73052,27.89185 -88.32418,-8.64667 2.73052,-27.89185 z M 367.98869,758.07144 257.6564,887.0695 229.60581,863.07777 244.56093,761.63771 q 0.68705,-4.65922 2.11232,-12.28484 1.42528,-7.62562 3.25728,-16.25258 1.67137,-8.61443 3.39284,-16.58636 l 8.88,-4.2478 q -4.77558,6.10931 -11.03212,13.95013 -6.3306,7.9274 -12.31599,15.10068 -5.98541,7.17326 -9.39164,11.15575 l -54.57376,63.80642 -26.5788,-22.7329 110.33231,-128.99805 28.13716,24.06578 -13.51956,91.8744 q -0.84654,5.72209 -2.40627,14.73181 -1.63379,9.09629 -3.73469,20.49144 -2.26153,11.40769 -4.91724,23.97732 l -7.2668,-0.96847 q 7.62589,-9.96764 14.54887,-18.58763 6.84893,-8.53345 12.24195,-15.0141 5.31896,-6.39409 8.429,-10.03027 l 51.16753,-59.82393 z M 228.517,581.46958 l 11.20916,42.40404 -28.52636,7.5407 -10.74331,-40.6418 q -4.36721,-16.52105 -13.38831,-25.68439 -9.13123,-9.13421 -22.4239,-11.27657 -13.40281,-2.11323 -30.69485,2.45778 -17.29204,4.57099 -27.78968,13.00212 -10.497651,8.43113 -13.812281,20.85531 -3.343731,12.31404 0.96523,28.61481 l 11.034461,41.7432 -28.526348,7.5407 -11.587646,-43.83587 q -6.521678,-24.67144 -1.273717,-45.38389 5.137823,-20.68335 20.940058,-35.34799 15.802232,-14.66465 41.024373,-21.33191 25.22215,-6.66727 46.31694,-1.75603 20.98465,4.94033 35.81134,20.46405 14.79758,15.41359 21.46484,40.63574 z M 70.754861,648.86106 234.86401,605.48017 243.83133,639.40341 79.722184,682.78429 Z M 233.45041,416.96014 q -6.7522,20.68524 -18.02265,33.18459 -11.37877,12.464 -26.37857,16.19612 -14.99979,3.73214 -32.54432,-1.99485 l 10.49945,-32.16501 q 8.95129,2.68225 16.54069,0.72555 7.62473,-2.06498 13.4213,-8.44176 5.79656,-6.37676 9.15498,-16.66523 3.04024,-9.31378 2.77652,-16.94974 -0.33668,-7.77962 -3.75625,-13.09023 -3.38422,-5.41892 -9.66561,-7.46933 -5.19839,-1.69688 -9.97871,0.0982 -4.8533,1.65143 -9.86314,7.08661 -4.97449,5.32688 -10.4989,14.90832 l -9.23241,15.80109 q -13.04649,22.34564 -28.01934,30.40077 -14.97285,8.05514 -32.300801,2.39885 -14.728751,-4.80783 -23.157047,-16.06764 -8.536596,-11.29515 -10.219995,-27.06427 -1.648055,-15.8774 4.326387,-34.18005 6.045155,-18.51924 16.745496,-30.0063 10.700359,-11.48705 24.83598,-15.14174 14.06269,-3.79834 30.4844,0.96293 l -10.1813,31.1903 q -11.76258,-2.88088 -20.98489,2.97683 -9.222301,5.85772 -13.464511,18.85367 -2.65138,8.12249 -2.13795,15.36061 0.44049,7.09447 3.78712,12.26142 3.38198,5.05868 9.230161,6.96768 4.98178,1.62618 9.58312,0.0124 4.49303,-1.64919 9.21557,-6.93848 4.72254,-5.28929 10.10555,-14.43752 l 8.4126,-14.39094 q 7.02264,-11.96853 14.21362,-20.04723 7.0827,-8.11406 14.69399,-12.34054 7.50298,-4.26185 15.71355,-4.81738 8.21057,-0.55552 17.30774,2.41403 15.48685,5.05531 24.313,16.56481 8.75319,11.36586 10.11619,27.74942 1.39835,16.27526 -5.07102,36.09409 z m 71.57144,-117.08104 -40.19991,-49.09739 -115.99331,-42.40129 31.11558,-25.47678 54.56193,21.14176 q 7.5598,2.93902 14.78297,6.00643 7.31134,2.99523 14.53452,6.06264 l -5.90579,4.83553 q -1.66998,-7.61425 -3.33995,-15.22851 -1.58183,-7.68643 -3.05953,-15.60534 l -10.66518,-57.08349 30.93929,-25.33245 19.47331,121.42984 40.19991,49.09741 z m 91.81029,-65.34292 -15.07835,-169.075015 34.94973,-3.116868 6.05159,67.856953 71.8285,-6.40577 -6.05158,-67.856951 34.83626,-3.106758 15.07835,169.075019 -34.83625,3.10676 -6.35518,-71.26115 -71.8285,6.40577 6.35516,71.26114 z m 264.337,50.45193 -33.6943,-28.07922 18.88966,-22.66706 32.29401,26.91228 q 13.12765,10.93995 25.78863,13.18639 12.73392,2.15894 24.81152,-3.79217 12.15055,-6.03866 23.60104,-19.77892 11.45048,-13.74027 15.1264,-26.69296 3.67593,-12.95269 -0.81656,-25.00112 -4.40496,-11.97549 -17.35757,-22.76958 l -33.1692,-27.64161 18.88966,-22.66707 34.83202,29.02733 q 19.60396,16.33701 27.31996,36.26213 7.78891,19.8376 3.39817,40.94409 -4.39075,21.10649 -21.09241,41.14803 -16.70167,20.04154 -36.74349,28.25347 -19.96906,8.12398 -41.0462,4.05455 -20.9898,-3.9969 -41.03134,-20.69856 z M 750.76049,138.68741 642.09028,269.0887 615.13485,246.62533 723.80507,116.22403 Z M 896.88912,316.82454 745.47068,393.54591 729.6115,362.24598 881.02995,285.52462 Z M 764.26536,490.67997 q -0.96225,-22.76437 8.8582,-41.3095 9.93426,-18.54993 29.06901,-29.84908 19.24854,-11.30396 46.1105,-12.4394 27.0896,-1.14507 47.10959,8.49901 20.13383,9.63927 31.48425,27.28951 11.46424,17.64542 12.42647,40.40979 0.96706,22.87819 -8.9672,41.42813 -9.82045,18.54512 -29.069,29.84907 -19.13473,11.29915 -46.22433,12.44422 -26.97579,1.14026 -46.99578,-8.50382 -20.01999,-9.64408 -31.48423,-27.28951 -11.35044,-17.65023 -12.31748,-40.52842 z m 30.95954,-1.30866 q 0.5533,13.08952 7.58316,22.94062 7.02988,9.85109 19.90465,15.00814 12.87479,5.15705 30.85866,4.39686 18.09767,-0.76497 30.49134,-6.99012 12.50748,-6.22995 18.68096,-16.63915 6.17346,-10.4092 5.62016,-23.49871 -0.54847,-12.97569 -7.57834,-22.82679 -7.02505,-9.73726 -20.01847,-15.00332 -12.87479,-5.15705 -30.97247,-4.39206 -17.98386,0.76017 -30.37753,6.9853 -12.38885,6.33896 -18.56713,16.63434 -6.17347,10.4092 -5.62499,23.38489 z m -33.74701,104.0588 141.77867,93.34091 -20.29696,30.82973 -102.51385,-2.15691 q -4.70856,-0.0992 -12.45255,-0.56004 -7.74397,-0.46083 -16.53227,-1.2 -8.75579,-0.58138 -16.88038,-1.29279 l -5.32456,-8.27932 q 6.65838,3.9744 15.21982,9.20168 8.65659,5.28994 16.52182,10.33167 7.86522,5.04173 12.24228,7.92339 l 70.1281,46.1693 -19.23197,29.21212 -141.77867,-93.34093 20.3596,-30.92486 92.84378,1.92839 q 5.78301,0.12459 14.91703,0.54578 9.22919,0.48386 20.79759,1.14378 11.6009,0.81772 24.40392,1.8813 l -0.0524,7.33084 q -10.84275,-6.32001 -20.26058,-12.11111 -9.32267,-5.72844 -16.42667,-10.26903 -7.00884,-4.47791 -11.00528,-7.109 l -65.75104,-43.28764 z"
           id="text9"
           style="font-weight:bold;font-size:195.618px;line-height:0.0558909px;font-family:'Adwaita Sans';-inkscape-font-specification:'Adwaita Sans Bold';fill:#ffffff;stroke:#ffffff;stroke-width:1.10228;stroke-linecap:round;stroke-opacity:1"
           aria-label=" ANDSYH DION" /><ellipse
           style="opacity:1;fill:#000000;fill-opacity:0;stroke:#000000;stroke-width:1;stroke-linecap:round;stroke-linejoin:miter;stroke-dasharray:none;stroke-opacity:0"
           id="path11"
           cx="226.48334"
           cy="372.53333"
           rx="171.45"
           ry="232.83333" /></g></g></g></svg>
